<svg width="38" height="38" viewBox="0 0 38 38" fill="none" xmlns="http://www.w3.org/2000/svg">
  <g clip-path="url(#clip0_65_468)">
    <path
      d="M37.1625 13.8965L26.1529 10.9477L19.9468 1.38911C19.5017 0.703629 18.4984 0.703629 18.0532 1.38911L11.8471 10.9477L0.837498 13.8965C0.0480885 14.108 -0.262031 15.0622 0.252326 15.6974L7.42586 24.5546L6.82798 35.9354C6.78508 36.7516 7.59684 37.3414 8.35984 37.0484L19 32.9631L29.6402 37.0485C30.4032 37.3415 31.2149 36.7516 31.172 35.9355L30.5741 24.5547L37.7477 15.6974C38.262 15.0623 37.9519 14.108 37.1625 13.8965Z"
      fill="#FFF04A" />
    <path
      d="M7.28369 36.9016C7.57748 37.1192 7.97482 37.1964 8.35997 37.0485L19.0001 32.9632V20.3994L7.28369 36.9016Z"
      fill="#FFDA45" />
    <path
      d="M30.7164 36.9016C31.0047 36.6882 31.1932 36.3397 31.172 35.9355L30.5741 24.5547L19 20.3994L30.7164 36.9016Z"
      fill="#FFDA45" />
    <path
      d="M30.5741 24.5546L37.7477 15.6973C38.0089 15.3748 38.0571 14.97 37.9382 14.6221L19 20.3994L30.5741 24.5546Z"
      fill="#FFBC36" />
    <path
      d="M19 20.3994L37.9382 14.622C37.823 14.2847 37.551 14.0006 37.1625 13.8966L26.1529 10.9478L19 20.3994Z"
      fill="#FFDA45" />
    <path
      d="M26.1529 10.9477L19.9468 1.38906C19.7242 1.04635 19.3621 0.875 19 0.875V20.3993L26.1529 10.9477Z"
      fill="#FFBC36" />
    <path
      d="M0.0620117 14.622L19.0002 20.3994L11.8473 10.9478L0.837725 13.8966C0.449191 14.0006 0.17715 14.2847 0.0620117 14.622Z"
      fill="#FFFD78" />
    <path
      d="M19.0002 20.3994L0.0619686 14.6221C-0.0568566 14.9701 -0.00869438 15.3748 0.25251 15.6973L7.42612 24.5546L19.0002 20.3994Z"
      fill="#FFDA45" />
    <path
      d="M30.7164 36.9016L19 20.3994V32.9632L29.6402 37.0486C30.0253 37.1964 30.4227 37.1192 30.7164 36.9016Z"
      fill="#FFBC36" />
  </g>
  <defs>
    <clipPath id="clip0_65_468">
      <rect width="38" height="38" fill="white" />
    </clipPath>
  </defs>
</svg>
  