<?xml version="1.0" standalone="no"?>
<!DOCTYPE svg PUBLIC "-//W3C//DTD SVG 20010904//EN"
 "http://www.w3.org/TR/2001/REC-SVG-20010904/DTD/svg10.dtd">
<svg version="1.0" xmlns="http://www.w3.org/2000/svg"
 width="512.000000pt" height="512.000000pt" viewBox="0 0 512.000000 512.000000"
 preserveAspectRatio="xMidYMid meet">

<g transform="translate(0.000000,512.000000) scale(0.100000,-0.100000)" stroke="none">
<path d="M2220 4965 c-61 -19 -138 -80 -172 -135 -20 -33 -76 -228 -213 -740
-102 -382 -188 -703 -191 -713 -5 -16 5 -17 158 -15 l163 3 173 650 c96 358
175 651 176 652 2 2 2160 -578 2165 -582 4 -4 -568 -2155 -576 -2164 -3 -4
-486 121 -531 137 -10 3 -12 -30 -10 -159 l3 -163 235 -63 c257 -70 321 -78
407 -49 64 21 144 90 172 149 11 23 154 539 317 1147 328 1221 321 1186 272
1291 -30 64 -83 121 -141 150 -63 33 -2262 619 -2317 618 -25 0 -65 -7 -90
-14z"/>
<path d="M2564 4380 c-18 -6 -53 -25 -80 -42 -204 -138 -185 -437 34 -545 75
-37 191 -39 263 -6 64 29 125 87 157 147 23 44 27 63 27 141 0 75 -4 97 -24
135 -57 110 -151 171 -271 176 -41 2 -89 -1 -106 -6z"/>
<path d="M3810 4051 c-94 -29 -187 -116 -215 -202 -23 -69 -17 -178 13 -241
92 -188 338 -236 495 -97 147 129 134 371 -25 488 -71 52 -190 75 -268 52z"/>
<path d="M581 3189 c-69 -13 -127 -47 -175 -100 -87 -97 -81 1 -81 -1329 0
-1351 -8 -1239 94 -1341 102 -102 -10 -94 1341 -94 1351 0 1239 -8 1341 94
102 102 94 -10 94 1341 0 1351 8 1239 -94 1341 -103 102 13 94 -1316 96 -638
0 -1180 -3 -1204 -8z m2299 -1429 l0 -1120 -1120 0 -1120 0 0 1120 0 1120
1120 0 1120 0 0 -1120z"/>
<path d="M2341 2709 c-149 -30 -254 -157 -254 -309 0 -89 28 -156 92 -221 126
-126 316 -126 442 0 64 65 92 132 92 221 0 196 -182 348 -372 309z"/>
<path d="M1701 2069 c-149 -30 -254 -157 -254 -309 0 -89 28 -156 92 -221 65
-64 132 -92 221 -92 89 0 156 28 221 92 64 65 92 132 92 221 0 196 -182 348
-372 309z"/>
<path d="M1061 1429 c-149 -30 -254 -157 -254 -309 0 -89 28 -156 92 -221 65
-64 132 -92 221 -92 89 0 156 28 221 92 64 65 92 132 92 221 0 196 -182 348
-372 309z"/>
<path d="M3468 2810 c-14 -4 -45 -18 -67 -31 l-41 -23 2 -250 3 -250 59 -30
c77 -40 184 -43 261 -8 113 52 188 163 189 282 1 130 -61 232 -176 289 -52 26
-72 31 -132 30 -39 0 -83 -4 -98 -9z"/>
</g>
</svg>
